<svg xmlns="http://www.w3.org/2000/svg" version="1.1" width="512"
     height="512" x="0" y="0" viewBox="0 0 32 32" style="enable-background:new 0 0 512 512"
     fill-rule="evenodd" class=""><g><path d="M15 18a1 1 0 0 0-1-1H7a1 1 0 0 0-1 1v7a1 1 0 0 0 1 1h7a1 1 0 0 0 1-1zm11 0a1 1 0 0 0-1-1h-7a1 1 0 0 0-1 1v7a1 1 0 0 0 1 1h7a1 1 0 0 0 1-1zm0-11a1 1 0 0 0-1-1h-7a1 1 0 0 0-1 1v7a1 1 0 0 0 1 1h7a1 1 0 0 0 1-1zM15 7a1 1 0 0 0-1-1H7a1 1 0 0 0-1 1v7a1 1 0 0 0 1 1h7a1 1 0 0 0 1-1z" fill="currentColor"></path></g></svg>